<?xml version="1.0" encoding="iso-8859-1"?>
<!-- Uploaded to: SVG Repo, www.svgrepo.com, Generator: SVG Repo Mixer Tools -->
<svg height="25px" width="25px" version="1.1" id="Layer_1" xmlns="http://www.w3.org/2000/svg" xmlns:xlink="http://www.w3.org/1999/xlink" 
	 viewBox="0 0 512 512" xml:space="preserve">
<g>
	<path style="fill:#A7A399;" d="M44.281,329.626c10.383-7.58,20.987-17.227,31.243-26.555
		c21.372-19.409,43.457-39.465,66.273-44.546l2.321-0.516l0.348,2.352c0.568,3.848,1.497,7.935,2.761,12.151l0.167,0.556
		l-0.128,0.566c-0.238,1.053-1.655,6.681-6.173,14.118c-4.612,7.601-13.542,18.829-29.881,29.153
		c-18.337,11.556-45.735,15.468-65.489,16.715l-7.567,0.478L44.281,329.626z"/>
	<path style="fill:#A7A399;" d="M145.109,273.146c-0.288,1.272-1.681,6.502-5.905,13.458c-4.49,7.398-13.193,18.335-29.172,28.431
		c-17.406,10.97-43.249,15.039-64.448,16.377c10.406-7.597,20.778-17.019,31.428-26.706c21.188-19.241,43.017-39.069,65.266-44.023
		C142.887,264.797,143.859,268.977,145.109,273.146z"/>
</g>
<g>
	<path style="fill:#BEB9AF;" d="M196.88,333.657l-0.664-0.805c-9.453-11.473-40.292-51.259-40.292-81.579
		c0-16.046,12.349-34.625,33.034-49.7c20.481-14.926,45.543-23.837,67.043-23.837c27.844,0,52.755,15.901,72.77,28.679l0.112,0.071
		c13.573,8.651,24.295,15.484,33.278,15.484c9.614,0,24.8-4.008,40.879-8.252l0.187-0.049c16.698-4.402,35.624-9.392,47.401-9.392
		c16.71,0,38.148,16.088,44.32,21.018l1.502,1.2l-0.98,1.655c-2.021,3.413-5.438,7.613-10.241,8.242
		c-14.28,1.868-68.534,22.72-118.072,63.248c-1.513,1.246-2.342,3.157-2.213,5.109l1.304,20.062h-10.014l-32.403-40.519
		l-0.007-0.764c-0.032-3.419,0.62-12.138,7.355-19.216c1.122-1.178,1.718-2.719,1.678-4.344c-0.04-1.623-0.71-3.133-1.887-4.25
		c-1.138-1.085-2.625-1.681-4.19-1.681c-1.681,0-3.246,0.671-4.409,1.891c-7.187,7.54-9.591,16.255-10.343,22.237l-0.273,2.172
		l-2.174-0.25c-8.12-0.932-15.113-3.084-21.875-5.164l-0.197-0.061c-7.606-2.361-14.786-4.589-22.381-4.589
		c-0.886,0-1.776,0.031-2.645,0.092c-5.365,0.374-10.855,1.569-16.319,3.555l-2.852,1.036l-0.114-3.032
		c-0.529-14.066-7.519-26.657-19.177-34.544c-1.005-0.677-2.178-1.036-3.389-1.036c-2.029,0-3.917,1.001-5.05,2.677
		c-1.878,2.776-1.147,6.563,1.63,8.441c9.871,6.671,14.865,17.448,13.701,29.566c-1.283,13.351-10.104,25.058-23.021,30.553
		c-5.659,2.412-8.683,8.849-7.034,14.973l2.982,11.103L196.88,333.657L196.88,333.657z"/>
	<path style="fill:#BEB9AF;" d="M493.567,227.022c-1.88,3.174-4.832,6.679-8.625,7.177c-14.453,1.891-69.28,22.902-119.186,63.729
		c-2.068,1.703-3.196,4.291-3.019,6.967l1.15,17.704h-6.591l-31.262-39.091c-0.033-3.594,0.708-11.324,6.746-17.671
		c3.163-3.317,3.03-8.57-0.288-11.722c-3.318-3.163-8.559-3.03-11.722,0.288c-7.453,7.818-10.096,16.798-10.937,23.488
		c-7.995-0.918-14.918-3.063-21.674-5.142c-8.659-2.687-16.853-5.22-25.832-4.589c-6.359,0.442-12.142,1.946-16.919,3.682
		c-0.553-14.708-7.807-27.944-20.148-36.293c-3.793-2.554-8.946-1.559-11.512,2.234c-2.566,3.793-1.57,8.946,2.223,11.512
		c9.178,6.204,13.823,16.234,12.739,27.524c-1.205,12.54-9.521,23.554-21.685,28.729c-6.668,2.842-10.24,10.395-8.305,17.583
		l2.234,8.316h-3.03c-8.902-10.804-39.788-50.393-39.788-80.172c0-32.666,53.047-71.326,97.866-71.326
		c27.181,0,51.797,15.703,71.58,28.331c13.933,8.88,24.925,15.902,34.579,15.902c9.919,0,25.279-4.058,41.535-8.349
		c16.609-4.379,35.42-9.344,46.931-9.344C464.825,206.487,483.558,219.027,493.567,227.022z"/>
</g>
<path style="fill:#3D484A;" d="M509.268,218.584c2.4,2.167,3.317,5.518,2.355,8.603c-2.433,7.84-10.339,21.608-24.538,23.455
	c-4.722,0.619-20.148,5.474-41.457,15.891c-16.587,8.106-41.225,21.785-66.062,41.568l0.94,14.531
	c4.28,0.332,7.641,3.904,7.641,8.26c0,4.578-3.716,8.294-8.294,8.294h-26.54c-2.521,0-4.899-1.15-6.48-3.118l-32.976-41.225
	c-12.175-0.564-21.917-3.561-30.598-6.259c-7.453-2.3-13.889-4.291-19.772-3.881c-10.417,0.73-18.998,5.485-21.431,6.967
	c-4.788,12.33-14.376,22.614-26.971,28.453l3.041,11.324h11.335c4.578,0,8.294,3.716,8.294,8.294c0,4.578-3.716,8.294-8.294,8.294
	H211.79h-0.022c-0.011,0-0.022,0-0.033,0h-17.66c-2.389,0-4.656-1.028-6.226-2.82c-1.239-1.415-20.801-23.864-34.093-50.658
	c-6.049,10.174-16.598,22.968-34.878,34.502c-26.673,16.831-68.008,19.573-92.093,19.584c-10.881,0-18.235-0.564-19.153-0.641
	c-4.235-0.332-7.531-3.826-7.63-8.084c-0.088-4.246,3.041-7.885,7.265-8.404c18.069-2.267,37.753-20.148,58.587-39.08
	c23.831-21.652,48.402-43.957,76.291-48.623c2.908-18.423,16.322-37.488,37.819-53.334c23.023-16.974,51.454-27.115,76.037-27.115
	c32.025,0,60.046,17.881,80.504,30.93c10.251,6.535,20.845,13.303,25.655,13.303c7.774,0,22.78-3.97,37.3-7.796
	c18.445-4.866,37.51-9.897,51.167-9.897C477.289,189.899,507.987,217.412,509.268,218.584z M484.94,234.199
	c3.793-0.498,6.746-4.003,8.625-7.177c-10.008-7.995-28.74-20.535-42.939-20.535c-11.512,0-30.322,4.965-46.931,9.344
	c-16.256,4.291-31.616,8.349-41.535,8.349c-9.654,0-20.646-7.022-34.579-15.902c-19.783-12.629-44.399-28.331-71.58-28.331
	c-44.819,0-97.866,38.66-97.866,71.326c0,29.78,30.886,69.369,39.788,80.172h3.03l-2.234-8.316
	c-1.935-7.188,1.637-14.741,8.305-17.583c12.164-5.175,20.48-16.189,21.685-28.729c1.084-11.29-3.561-21.32-12.739-27.524
	c-3.793-2.566-4.788-7.719-2.223-11.512c2.566-3.793,7.719-4.788,11.512-2.234c12.341,8.349,19.595,21.586,20.148,36.293
	c4.777-1.736,10.561-3.24,16.919-3.682c8.979-0.63,17.173,1.902,25.832,4.589c6.757,2.079,13.679,4.224,21.674,5.142
	c0.84-6.69,3.483-15.67,10.937-23.488c3.163-3.317,8.404-3.45,11.722-0.288c3.317,3.152,3.45,8.404,0.288,11.722
	c-6.038,6.347-6.779,14.077-6.746,17.671l31.262,39.091h6.591l-1.15-17.704c-0.177-2.676,0.951-5.264,3.019-6.967
	C415.661,257.1,470.488,236.09,484.94,234.199z M139.204,286.604c4.224-6.956,5.618-12.186,5.905-13.458
	c-1.25-4.169-2.223-8.349-2.831-12.463c-22.249,4.954-44.078,24.782-65.266,44.023c-10.649,9.687-21.022,19.109-31.428,26.706
	c21.199-1.338,47.042-5.408,64.448-16.377C126.012,304.938,134.714,294.002,139.204,286.604z"/>
</svg>