<?xml version="1.0" encoding="iso-8859-1"?>
<svg fill="#fff" height="20px" width="20px" version="1.1" xmlns="http://www.w3.org/2000/svg" xmlns:xlink="http://www.w3.org/1999/xlink" 
	 viewBox="0 0 226.662 226.662" xml:space="preserve">
<g>
	<g>
		<g>
			<path d="M224.397,62.025c-3.739-6.475-11.421-9.939-21.69-9.71c-9.377,0.194-20.007,3.46-29.932,9.189
				s-18.067,13.305-22.924,21.326c-4.107,6.782-5.521,13.33-4.236,18.95c-5.622-1.032-9.883-0.688-13.227,1.07
				c-5.394,2.841-7.008,8.479-8.568,13.928c-1.539,5.378-3.129,10.937-8.233,14.946c-4.932,3.875-11.833,2.774-19.137,1.606
				c-6.542-1.042-13.305-2.123-19.162,0.521c-12.133,5.473-14.946,15.317-17.207,23.232c-2.346,8.211-3.577,12.524-12.433,12.524
				c-0.022,0-0.045-0.004-0.069-0.004c-8.988-6.692-28.687-13.999-46.23,1.665c-1.665,1.488-1.809,4.04-0.322,5.705
				c0.797,0.896,1.904,1.349,3.015,1.349c0.957,0,1.92-0.339,2.689-1.026c17.683-15.806,36.082-1.187,36.849-0.564l1.042,0.856
				l1.352,0.059c16.448,0.695,19.453-9.857,21.879-18.347c2.079-7.28,4.044-14.153,12.758-18.087
				c3.656-1.649,8.955-0.793,14.566,0.099c8.286,1.318,17.685,2.821,25.402-3.236c7.162-5.623,9.296-13.08,11.011-19.074
				c1.379-4.818,2.336-7.828,4.563-9c2.683-1.413,7.972-0.813,15.718,1.779c0.195,0.065,0.39,0.038,0.586,0.073
				c4.081,2.863,9.554,4.331,15.856,4.331c9.201,0,20.097-3.058,30.727-9.194C220.619,94.529,231.758,74.777,224.397,62.025z
				 M194.998,99.994c-18.835,10.87-36.196,10.042-40.583,2.434c-2.166-3.752-1.31-9.371,2.349-15.412
				c4.163-6.877,11.285-13.455,20.052-18.513c8.767-5.062,18.022-7.943,26.059-8.108c0.235-0.008,0.469-0.008,0.7-0.008
				c6.712,0,11.728,2.052,13.822,5.678C221.787,73.668,213.835,89.12,194.998,99.994z"/>
			<path d="M23.338,118.05c0.12,0,0.243-0.004,0.365-0.016c10.867-0.975,15.301-7.785,19.216-13.794
				c2.634-4.044,5.122-7.868,9.535-10.728c1.571-1.018,3.383-1.105,6.208-1.156c3.865-0.071,9.16-0.17,13.628-5.062
				c3.259-3.567,4.942-8.085,6.57-12.457c3.2-8.602,5.124-13.81,16.171-11.652c0.099,0.019,0.19-0.014,0.288-0.002
				c2.138,1.043,4.608,1.631,7.398,1.631c1.215,0,2.486-0.103,3.802-0.308c5.952-0.931,12.318-3.946,17.923-8.483
				c12.385-10.026,17.063-24.088,10.648-32.015c-3.322-4.103-8.858-5.784-15.607-4.727c-5.952,0.931-12.318,3.946-17.923,8.483
				c-10.067,8.15-15.041,18.965-13.106,26.986c-11.109,1.046-14.546,10.223-17.168,17.265c-1.421,3.815-2.762,7.418-4.962,9.825
				c-2.032,2.225-4.076,2.367-7.813,2.434c-3.062,0.059-6.869,0.13-10.458,2.458c-5.85,3.796-9.067,8.736-11.908,13.096
				c-3.737,5.741-6.206,9.533-13.165,10.156c-2.223,0.201-3.863,2.162-3.663,4.387C19.507,116.472,21.269,118.05,23.338,118.05z
				 M106.646,34.046c4.451-3.606,9.584-6.076,14.086-6.783c0.882-0.138,1.72-0.205,2.505-0.205c2.525,0,4.494,0.702,5.571,2.032
				c3.006,3.717-0.134,13.112-9.452,20.652c-4.451,3.606-9.584,6.076-14.086,6.783c-3.717,0.584-6.664-0.083-8.077-1.827
				C94.187,50.981,97.328,41.586,106.646,34.046z"/>
			<path d="M163.479,154.228c-9.61,3.881-16.04,10.915-16.924,17.644c-8.84-1.364-13.834,5.128-17.364,9.743
				c-1.959,2.561-3.81,4.979-5.96,6.25c-1.839,1.085-3.259,0.746-6.037-0.043c-2.48-0.706-5.571-1.59-9.111-0.572
				c-5.593,1.598-9.328,4.723-12.622,7.481c-4.463,3.733-7.031,5.627-11.969,4.593c-2.198-0.478-4.326,0.939-4.784,3.125
				c-0.46,2.182,0.939,4.324,3.123,4.782c1.503,0.316,2.898,0.458,4.204,0.458c6.532,0,10.785-3.559,14.613-6.763
				c2.938-2.458,5.714-4.778,9.659-5.911c1.261-0.355,2.594-0.02,4.668,0.576c3.151,0.9,7.463,2.131,12.366-0.769
				c3.504-2.072,5.926-5.236,8.268-8.298c4.881-6.376,7.154-8.811,14.337-4.987c0.067,0.036,0.142,0.031,0.21,0.063
				c2.908,2.591,7.249,3.993,12.284,3.993c3.944,0,8.294-0.844,12.658-2.608c12.378-4.999,19.525-15.234,16.27-23.299
				C188.105,151.62,175.859,149.221,163.479,154.228z M172.071,175.495c-8.355,3.374-16.057,2.257-17.369-0.99
				c-1.314-3.255,3.457-9.411,11.804-12.784c3.529-1.424,6.943-2.048,9.807-2.048c3.914,0,6.804,1.164,7.562,3.038
				C185.187,165.963,180.418,172.122,172.071,175.495z"/>
		</g>
	</g>
</g>
</svg>